<svg width="375" height="79" viewBox="0 0 375 79" xmlns="http://www.w3.org/2000/svg" xmlns:xlink="http://www.w3.org/1999/xlink">
    <defs>
        <filter x="-25.4%" y="-113.1%" width="150.8%" height="313.1%" filterUnits="objectBoundingBox" id="a">
            <feOffset dy="-4" in="SourceAlpha" result="shadowOffsetOuter1"/>
            <feGaussianBlur stdDeviation="21" in="shadowOffsetOuter1" result="shadowBlurOuter1"/>
            <feColorMatrix values="0 0 0 0 0 0 0 0 0 0 0 0 0 0 0 0 0 0 0.0933948864 0" in="shadowBlurOuter1"/>
        </filter>
        <rect id="b" x="0" y="0" width="256" height="61" rx="30.5"/>
    </defs>
    <g fill="none" fill-rule="evenodd">
        <g transform="translate(58 9)">
            <use fill="#000" filter="url(#a)" xlink:href="#b"/>
            <use fill="#FFF" xlink:href="#b"/>
        </g>
        <g fill="#FE3C72" fill-rule="nonzero">
            <path d="M188 30c-5.514 0-10 3.984-10 8.882 0 1.711.549 3.37 1.59 4.804-.198 2.15-.726 3.746-1.492 4.502a.326.326 0 0 0-.063.38.334.334 0 0 0 .345.179c.135-.019 3.27-.464 5.539-1.757 1.288.513 2.66.773 4.081.773 5.514 0 10-3.984 10-8.881 0-4.898-4.486-8.882-10-8.882zm-4.375 10c-.69 0-1.25-.56-1.25-1.25s.56-1.25 1.25-1.25 1.25.56 1.25 1.25-.56 1.25-1.25 1.25zM188 40c-.69 0-1.25-.56-1.25-1.25s.56-1.25 1.25-1.25 1.25.56 1.25 1.25S188.69 40 188 40zm4.375 0c-.69 0-1.25-.56-1.25-1.25s.56-1.25 1.25-1.25 1.25.56 1.25 1.25-.56 1.25-1.25 1.25z"/>
            <path d="M102.705 28.24a1.6 1.6 0 0 1 1.219-.234l11.507 2.446c.874.187 1.428 1.057 1.24 1.946l-3.67 17.27c-.19.888-1.051 1.458-1.925 1.273L99.57 48.495c-.874-.186-1.428-1.057-1.24-1.946l.848-3.995.223-12.734c.016-.833.646-1.507 1.437-1.567l.141-.005 1.677.03zm4.42 12.995a3.697 3.697 0 0 0-2.828.55c-.843.571-1.43 1.471-1.656 2.535a.35.35 0 0 0 .046.263c.05.077.128.131.217.15l6.655 1.414c.09.02.183.002.26-.049a.35.35 0 0 0 .149-.22c.226-1.064.055-2.126-.483-2.99a3.697 3.697 0 0 0-2.36-1.653zm1.27-5.972c-1.288-.272-2.557.566-2.84 1.875-.279 1.31.538 2.596 1.826 2.871 1.288.275 2.56-.564 2.84-1.874.28-1.31-.538-2.596-1.826-2.872zm-1.06-4.844a.346.346 0 0 0-.408.27.346.346 0 0 0 .263.413l3.836.815a.346.346 0 0 0 .408-.27.346.346 0 0 0-.263-.413zM268 29c-5.5 0-10 4.5-10 10s4.5 10 10 10 10-4.5 10-10-4.5-10-10-10zm0 3c1.7 0 3 1.3 3 3s-1.3 3-3 3-3-1.3-3-3 1.3-3 3-3zm0 14.2c-2.5 0-4.7-1.3-6-3.2 0-2 4-3.1 6-3.1s6 1.1 6 3.1c-1.3 1.9-3.5 3.2-6 3.2z" opacity=".412"/>
        </g>
    </g>
</svg>
